<svg id="Layer_1" data-name="Layer 1" xmlns="http://www.w3.org/2000/svg" viewBox="0 0 256 256"><defs><style>.cls-2{fill:#111033}</style></defs><circle class="cls-2" cx="128" cy="128" r="125"/><path d="M120.31 3.24C54.86 7.22 3 61.55 3 128s51.86 120.78 117.31 124.76C130.55 212.88 136 171.08 136 128s-5.45-84.88-15.69-124.76z" style="fill:#f8f9fa"/><g style="fill:none;opacity:.03"><path class="cls-2" d="M218.62 91.55c-1.03-.85-1.3-.33-1.41.45-.09.64-.2 1.29-.28 1.93-.08.67-.27 1.26-.83 1.7-.7.55-.76 1.4-.9 2.2-.2 1.06-.17 2.23-1.31 2.87-.07.04-.15.12-.15.19-.08 2.15-1.62 3.74-2.15 5.71-.15.55-.24 1.11-.49 1.63-1.09 2.24-2.22 4.49-3.49 6.61-1.19 1.99-2.65 3.87-4.2 5.66-1.19 1.38-2.64 2.33-4.02 3.43-1.11.88-2.52.8-3.88 1.1.42.43.96.51 1.76.92-7.12.9-13.87.76-20.73 0 .26-.59.59-.51.85-.59.23-.07.47-.11.73-.42-.87-.12-1.74-.29-2.62-.33-1.02-.05-2.02-.21-3.02-.42-.45-.09-.99-.01-.88-.83.06-.49-.52-.37-.85-.44-1.41-.3-2.96-.21-3.92-1.6-.02-.03-.07-.06-.1-.06-2.33-.11-4-1.91-6.18-2.4-.56-.13-1.07-.31-1.57-.63-1.94-1.26-4.08-2.11-6.25-2.89-.69-.25-1.36-.36-1.89-1-.62-.75-1.62-.65-2.49-.78-1.24-.18-2.51-.07-3.74-.45.13-.66.97-.26 1.14-1.01-1.8-.09-3.45-.69-5.23.55-1.3.91-2.27 2.05-3.37 3.12-.4.38-.57.88-.68 1.41-.15.74-.39 1.41-1.16 1.75-.49.21-.52.7-.55 1.15-.1 1.42-.17 2.85-.28 4.27-.03.43.1.9-.27 1.29-.6-.55-.25-1.44-.78-2.01-.41.23-.28.65-.31.98-.72 9.52-.44 19.05 0 28.57.02.33-.11.89.36.91.52.02.52-.55.54-.94.03-.77 0-1.54 0-2.4.51.24.41.6.43.87.04.81.03 1.63.07 2.44.06 1.18-.03 2.54 1.19 3.14 1.46.72 2.99.74 4.56-.08 3.16-1.64 5.69-4.14 8.61-6.1 1.55-1.04 3.2-1.93 4.73-2.98 1.46-1.01 3.33-1.3 4.65-2.27 2.01-1.48 4.35-1.04 6.38-1.88 2.19-.9 4.41-.93 6.69-.79.78.05 1.52.14 2.13.73.39.38.96.38 1.5.43 1.74.16 3.36.47 4.91 1.54 1.26.88 2.81 1.39 4.09 2.35 2.12 1.6 4.27 3.14 6.01 5.23.8.97 1.49 2.13 2.64 2.8.26.15.38.43.44.71.22 1.03.74 1.81 1.58 2.51.8.66.99 1.77 1.11 2.78.08.75-.61.87-1.2.9-2.12.08-4.23.14-6.35.21-3.75.13-7.49-.18-11.24-.2-5.5-.03-11-.04-16.49-.09-.64 0-1.54.41-1.84-.44-.3-.84-.24-1.85.41-2.55.74-.8 1.26-1.67 1.64-2.67.25-.66.83-1.08 1.47-1.4.97-.47 2.12-.66 2.74-1.72.09-.15.43-.18.67-.22 3.73-.66 7.06.33 10.18 2.37 1.26.82 2.26 1.84 2.94 3.15.52 1.01 1.35 1.51 2.41 1.64 1.78.21 3.58.2 5.36-.02 1.17-.14 1.4-.72.67-1.67-.61-.79-1.08-1.61-1.34-2.57-.31-1.11-1.35-1.73-2.06-2.5-1.78-1.91-3.89-3.37-6.31-4.59-3.12-1.56-6.27-1.44-9.51-1.52-1.75-.05-3.54-.34-5.16.51-2.93 1.55-5.9 3.03-8.13 5.66a28.973 28.973 0 0 0-3.81 5.77c-.45.9-1.09 1.7-1.66 2.54-.22.33-.58.43-.95.47-4.08.4-8.16.76-12.28.4-1.78-.16-3.52.5-5.33.5-1.79 0-3.59-.11-5.35-.04-3.51.15-6.97-.47-10.48-.41-1.9.03-3.82-.04-5.71-.45-1.05-.23-1.67-.7-1.82-1.8-.12-.85-.29-1.7-1.26-2.08-.16-.06-.31-.29-.36-.47-.96-3.75-4.18-5.5-6.82-7.77-.53-.46-1.24-.61-1.88-.86-1.02-.39-2.1-.64-2.98-1.37-.26-.22-.67-.33-1.02-.36-3.41-.28-6.82-.56-10.24-.14-.94.12-1.72.53-2.5 1.12-1.15.87-2.59 1.29-3.71 2.28-1.99 1.76-3.74 3.74-5.35 5.84-.15.19-.25.42-.35.64-.96 2.14-.46 2.92 1.89 2.93 1.34 0 2.69-.02 4.03-.03.38 0 .82-.02.98-.37.47-1.08 1.6-1.58 2.18-2.58.71-1.23 2.09-1.81 3.19-2.59 1.28-.9 2.71-1.59 4.4-1.78 4.45-.52 7.41 1.82 10.03 4.87.81.94.62 2.44 1.66 3.35.25.22-.12.47-.39.6-.8.39-1.66.39-2.51.44-2.89.17-5.77-.39-8.66-.19-4.15.28-8.3.13-12.45.31-4.02.17-8.06-.06-12.08-.14-.6-.01-1.32 0-1.51-.75-.19-.74-.07-1.56.54-2.02 1.27-.98 1.83-2.46 2.75-3.67 1.94-2.57 3.9-5.03 6.57-6.94 1.98-1.42 4.05-2.63 6.11-3.89 1.74-1.06 3.48-1.16 5.25-1.57.83-.19 1.69-.25 2.41-.8.39-.3.91-.36 1.4-.35 2.33.05 4.68-.35 6.91.9 1.27.72 2.85.59 4.28.93.54.13 1.11.19 1.39.83.17.39.64.5 1.03.58.89.19 1.61.79 2.4 1.09 1.97.75 3.46 2.23 5.32 3.14 1.2.59 2.12 1.74 3.2 2.59 1.66 1.31 3.27 2.71 5.06 3.82 1.49.93 3.36 1.15 4.92.36 1.31-.67 2.2-2.07 2.48-3.59.38-2.04.67-4.11.79-6.17.08-1.5 1.18-2.58 1.26-4.11.18-3.27-.1-6.51-.38-9.75-.03-.38.04-.98-.64-.33-.17.16-.23-.33-.24-.54-.17-2.68-.65-5.34-.59-8.04.02-1.06-.26-1.99-.93-2.83-.67-.83-.72-1.9-.94-2.87-.42-1.85-1.85-3.12-2.6-4.78-.32-.71-1.31-.75-1.97-1.13-.35-.2-1.46.02-.82-1.04.11-.18-.22-.16-.35-.18-1.46-.27-2.92-.21-4.37.06-.25.05-.56.12-.56.38.01 1.18-.87.95-1.55 1.02-2.7.26-5.12 1.24-7.35 2.74-.1.07-.21.15-.32.16-2.59.28-4.53 2.13-6.96 2.82-1.67.47-3.02 1.79-4.84 1.94-.2.02-.5.13-.34.36.85 1.23-.4.78-.75.89-1.39.44-2.88.36-4.45.57.46.62 1.13.56 1.66 1.08-2.5.67-5.01.31-7.52.97.75.71 1.79.3 2.75 1.06-1.88.11-3.45.2-5.01.3-4.8.31-9.6.38-14.39-.13-.52-.06-1.11-.03-1.08-.83.01-.3-.27-.37-.51-.44-2.84-.74-4.87-2.59-6.75-4.73-1.37-1.56-2.47-3.3-3.64-5-.82-1.19-1.61-2.28-1.82-3.73-.03-.19-.15-.46-.29-.51-1.35-.49-1.21-1.68-1.33-2.75-.08-.77-.05-1.52-1.08-1.8-.66-.18-.55-.94-.63-1.48-.16-1.04-.13-2.08-1.31-2.69-.55-.28-.47-1.09-.52-1.69-.12-1.2-.29-2.35-1.3-3.18-.17-.14-.32-.4-.35-.63-.22-1.42-.92-2.64-1.46-3.95-.8-1.92-1.74-3.76-2.7-5.58-.78-1.48-1.88-2.86-2.68-4.31-.88-1.59-2.3-2.32-3.48-3.43-.15-.14-.31-.27-.49-.37-3.2-1.78-7.76-1.81-10.57 1.13-.68.71-.95 1.48-1.04 2.39-.05.53.08 1.2-.92.98-.56-.12-.5.57-.52.92-.15 2.23-.3 4.47-.37 6.71-.18 6.07.15 12.14.45 18.2.01.3-.07.67.39.88.74-.88.35-2.02.68-3.06.38.38.27.83.3 1.23.12 1.5.15 3.01.35 4.5.12.87-.12 2.06 1.35 2.22.37.04.29.62.31.97.07.92.44 1.66.97 2.44 1.04 1.53 1.77 3.27 2.84 4.78 1.23 1.74 2.75 3.25 4.27 4.76 2.16 2.15 4.94 3.35 7.43 5.01.46.31 1.04.46 1.59.61.71.2 1.41.34 1.85 1.05.25.41.78.46 1.2.51 1.59.18 3.12.59 4.66.98.61.15 1.23.17 1.68.81.32.46 1.02.43 1.6.42 4.68-.05 9.36-.07 14.04-.16 1.64-.03 3.26-.01 4.74-1.14.97-.74 2.38-.79 3.65-.82 1.08-.03 1.27.46 1.03 1.48-.41 1.78-1.9 2.84-2.74 4.34-.44.79-.96 1.57-1.44 2.36-.61 1.01-1.62 1.77-2.37 2.7-1.99 2.46-4.33 4.59-6.51 6.87-3.03 3.17-6.11 6.29-10.32 7.96-1.61.64-3.25 1.44-4.63 2.38-2.22 1.51-4.59.98-6.9 1.34-.36.05-.72.05-1.25.09.57.68 1.42.35 1.92.89-.18.41-.58.33-.91.37-2.24.27-4.47-.02-6.71-.13-.12 0-.3 0-.35-.07-1.05-1.42-2.65-.97-4.04-1.17-1.1-.16-2.19-.25-2.96-1.21-.14-.17-.41-.28-.64-.32-3.25-.46-5.07-2.96-7.06-5.09-1.95-2.08-3.07-4.68-4.2-7.32-.96-2.25-1.42-4.45-1.5-6.82-.02-.52-.02-1.14-.29-1.54-.66-1.01-.04-1.2.72-1.31.94-.14 1.83-.23 2.38.88.29.58 1.04.57 1.64.68 1.31.23 2.7.2 3.62 1.44.25.34.75.26 1.15.32 1.73.23 3.46.37 5.04 1.31.87.52 1.96.52 2.97.59 5.56.38 11.1 1.11 16.68 1.24.36 0 .73.07 1.09.14.59.11 1.11.33 1.23 1.01.11.63-.34.93-.75 1.29-1.74 1.53-3.49 3.05-5.69 3.92-.34.13-.71.19-1.05.3-.28.09-.74-.11-.81.33-.07.38.55.29.61.71a26.4 26.4 0 0 1-7.63.27c-1.7-.19-2.76-1.51-3.87-2.56-.94-.9-1.53-2.18-2.21-3.34-.38-.65-.85-1.03-1.61-1.14-1.56-.22-3.19-.04-4.62-.94-.4-.25-.69.11-.85.45-.51 1.05-.24 1.99.49 2.82.24.27.68.42.73.79.18 1.3 1.04 2.17 1.85 3.08 1.71 1.9 3.52 3.53 5.81 4.88 4.54 2.67 8.97.96 13.52.86-.1-.7-.55-.46-.7-.72 1.12-.49 2.28-.77 3.49-.94.89-.12 1.65-.53 2.42-1.05 2.79-1.88 5.63-3.66 8.14-5.92 2.2-1.98 4.45-3.89 6.14-6.35.14-.2.28-.49.47-.54 1.56-.44 1.26-1.64 1.19-2.77-.03-.43-.24-.69-.63-.79-.39-.1-.77 0-.9.42-.23.74-.82.84-1.45.87-6.35.31-12.7.29-19.06-.03-.65-.03-1.41 0-1.56-1.01-.06-.4-.61-.34-.96-.37-1.82-.17-3.65-.3-5.48-.47-.39-.04-.94.12-1.11-.3-.21-.51.58-.44.72-.9-1.46-.24-2.9-.45-4.34-.73-.36-.07-1.36.08-.47-.86.36-.37-.22-.43-.43-.43-2.66.04-4.19-2.07-6.15-3.31-1.74-1.1-3.16-2.68-4.83-3.89-2.47-1.79-5.19-2.87-8.34-2.42-.47.07-.97 0-1.42 0-.27-.53.66-.78.17-1.25-.33-.31-.75-.26-1.16-.22-.66.06-.85-.36-.86-.91-.08-2.84-.1-5.67.31-8.83.22 2.17.4 4.02.58 5.86.12 0 .24 0 .36-.01.42-6.29.21-12.61 1.01-18.94.15.82.31 1.63.49 2.58.64-.42.54-.94.56-1.38.1-2.57.27-5.13.57-7.68.07-.55-.15-1.27.89-1.24.42 0 .42-.65.45-1.03.28-3.86 2.15-7.25 3.16-10.88.66-2.38 2.17-4.33 2.68-6.72.17-.82.84-1.4 1.12-2.15.5-1.33.84-2.72 1.93-3.76.24-.24.28-.73.33-1.12.12-.91.35-1.74 1.2-2.27.4-.25.53-.7.66-1.14.18-.59.17-1.23 1.09-1.36.52-.07.48-.88.58-1.38.3-1.46 1-2.57 2.48-3.05.96-.31 1.89-.57 2.63.46.28.39.78.41 1.23.46 3.84.46 7.67.94 11.54 1.06 1.61.05 3.08 1.05 4.76.7.66-.14 1.37.02 1.85-.68.24-.35.75-.26 1.15-.31 3.39-.42 6.84-.2 10.2-.97.47-.11.94-.2 1.4-.43-.47-.05-.95-.1-1.62-.16.77-.6 1.56-.51 2.24-.7.78-.22 1.59-.37 2.39-.51 1.46-.26 2.48-1.4 3.86-1.87 1.62-.55 3.05-1.53 4.38-2.57 2.08-1.63 3.96-3.5 5.76-5.44.47-.5.64-1.12.85-1.74.24-.71.67-1.02 1.48-.92 1.12.14 2.19.04 2.88 1.34.37.7 1.57.52 2.29 1.03 3.26 2.29 6.48 4.62 8.99 7.78 1.31 1.65 2.87 3.15 3.93 4.95.86 1.44 1.99 2.77 2.44 4.45.15.56.44 1.04.91 1.41.19.14.43.34.46.55.35 2.05 1.77 3.63 2.38 5.58.58 1.84 1.8 3.47 1.94 5.48 0 .08.05.19.1.22 1.87.75 1.26 2.57 1.68 3.93.22.71.33 1.46 1.31.58l.47 2.76c.08.45.14.99.52 1.21 1.04.6 1.05 1.61 1.31 2.59.43 1.58 1.64 2.75 2.41 4.16.3.55.79 1.01.97 1.65.19.68.62 1.17 1.14 1.67.85.83 1.28 1.99 2.29 2.76 1.24.95 2.13 2.33 3.68 2.88.11.04.26.12.29.21.54 1.7 2.13 1.62 3.37 1.75 3.44.37 6.91.36 10.36 0 1.38-.14 2.54-.58 3.74-1.6 1.67-1.4 3.38-2.78 4.99-4.26.3-.27.68-.53.83-.87.86-2 2.32-3.58 3.54-5.34.22-.32.33-.74.46-1.12.29-.85.5-1.73 1.29-2.3.1-.07.2-.17.23-.28.47-1.6 1.35-3.03 1.97-4.51.96-2.29 1.89-4.65 2.76-6.99 1.22-3.28 2.67-6.52 4.28-9.68.89-1.75 1.91-3.44 2.87-5.13.95-1.69 2.07-3.37 3.4-4.86 2.46-2.76 5.07-5.38 7.92-7.72 2.06-1.69 4.34-3.1 6.77-4.24.75-.35 1.12-.17 1.66.38 1.49 1.55 2.42 3.53 4.08 4.97 1.31 1.14 2.67 2.27 4.03 3.31.98.75 2.2 1.44 3.43 1.96.99.42 2.33.28 2.86 1.63.1.25.81.28 1.25.35 1.13.18 2.27.32 3.32.76.14.06 1.35-.4.57.65-.06.09.45.27.72.3 1.94.23 3.85.68 5.8.78 2.52.13 5.03.28 7.55.48 1.25.1 2.46.42 3.72.52 1.47.12 2.63-.75 3.98-.84 3.09-.19 6.16-.57 9.23-.9.56-.06 1.35.13 1.13-.92-.03-.17.1-.31.28-.34.24-.04.33.15.48.3 1.5 1.52 2.9 3.18 3.78 5.09.75 1.61 2.16 2.87 2.44 4.71.07.45.36.82.69 1.13.56.52.86 1.19 1.01 1.91.21 1 .42 1.91 1.32 2.63.62.5.6 1.48.71 2.29.1.73.23 1.37.94 1.88.74.54.62 1.53.74 2.37.14.95.12 1.94.81 2.7.44-.15.25-.61.54-.86.43 2.2.41 4.45 1.28 6.57.51-.34.24-.91.71-1.37.24 2.84.46 5.52.71 8.48.71-1.02.39-2.1 1.08-2.88.28 4.15.55 8.28.91 12.7.76-1.26.53-2.49 1-3.89.08.78.16 1.25.17 1.73.07 2.52.25 5.06.14 7.57-.15 3.43.91 6.69 1.12 10.06.16 2.54-.95 3.96-3.49 4.14-.85.06-1.7.24-2.55.25-1.94.03-3.12 1.48-4.5 2.45-2.76 1.94-5.28 4.2-8.12 6.03-.89.57-1.89.71-2.86 1.01-.44.13-1.16.02-.84.94.16.46-.36.29-.57.35-1.57.4-3.19.44-4.8.53-.01.1-.03.2-.04.31.86.24 1.72.49 2.57.73v.2c-3.05.23-6.11.46-9.36.71.66.88 1.65.4 2.24 1.06-2.63.48-5.23.47-7.81.46-3.83-.01-7.66.18-11.48-.08-1.64-.11-3.34.1-4.79-1.05-.42-.34-.9-.12-.96.47-.08.76-.1 1.47.48 2.17 2.09 2.53 4.56 4.69 6.82 7.04 1.64 1.7 3.83 2.82 5.8 4.15 1.72 1.16 3.77 1.75 5.33 3.16.09.08.2.16.31.19 4.88 1.32 9.72 3.09 14.91 1.59.2-.06.39-.11.58-.18 1.1-.44-.14-.43-.13-.72.07-.04.16-.15.25-.15 2.45.03 3.69-1.86 5.35-3.19 1.5-1.21 2-3.02 3.23-4.36.64-.69.63-1.75.79-2.66.11-.64.9-1.34.51-1.76-.48-.52-1.08.41-1.73.46-1.26.11-2.5.35-3.75.51-1.92.25-2.2.58-2.79 2.36-.45 1.37-1.63 2.22-2.71 3.09-.25.2-.69.27-.81.51-.63 1.28-1.79 1.23-2.92 1.26-1.22.03-2.44.03-3.67 0-1.38-.04-2.62-.2-3.79-1.27-.97-.89-2.35-1.38-3.5-2.14-1.11-.74-2.05-1.6-2.88-2.61-.34-.41-.67-.86-.38-1.44.28-.57.81-.61 1.36-.61.94.01 1.87.07 2.81.05 4.68-.1 9.28-1.02 13.95-1.31 1.77-.11 3.58-.05 5.33-.67-.12-.49-.64-.16-.83-.43 1.58-.14 3.09-.75 4.7-.75.29 0 .7-.11.7-.38.03-1.22.96-.97 1.66-1.07.93-.14 1.86-.24 2.79-.33.88-.09 1.45-.31.56-1.24 1.18-.6 2.4-.13 3.54-.47.41-.12.46.4.5.69.18 1.26 0 2.52-.18 3.77-.05.32-.19.63-.55.28-.67-.67-.7-.09-.75.37-.09.89-.13 1.79-.21 2.68-.12 1.17-.23 2.29-1.23 3.2-.66.6-.68 1.63-.8 2.52-.08.53-.18.94-.78 1.07-.21.05-.45.23-.57.41-2.16 3.43-5.41 5.43-8.83 7.46-2.58 1.53-5.15 1.08-7.75 1.37-.55.06-1.13-.09-1.82.31 1.24.14 2.37.11 3.39.67-2.93.54-5.86.47-8.85.3.27-.42.88-.41.95-1.12-1.32-.06-2.64-.17-3.96-.18-1.38-.02-2.69-.18-3.7-1.25a.599.599 0 0 0-.31-.19c-2-.28-3.46-1.7-5.21-2.5-2.04-.94-3.79-2.48-5.53-3.96-2.66-2.26-5.16-4.7-7.53-7.25-1.21-1.31-2.24-2.78-3.69-3.87-.28-.21-.32-.55-.4-.87-.21-.88-.47-1.65-1.41-2.13-.78-.4-.94-1.43-1.53-2.12-1.04-1.22-1.56-2.82-2.48-4.17-.41-.6.08-1.15.79-1.1 1.73.13 3.51.14 4.99 1.29.75.58 1.67.63 2.56.66 4.19.15 8.39 0 12.58.24 1.67.1 3.57.11 4.92-.62 2.17-1.16 4.7-.71 6.66-1.82 2.62-1.49 5.49-2.55 7.87-4.51 1.12-.92 2.32-1.76 3.39-2.76 2.25-2.13 4.15-4.5 5.81-7.13 1.06-1.68 1.41-3.73 2.89-5.18.4-.39.36-1.06.46-1.62.19-1.03.21-2.12 1.29-2.77.41-.25.38-.78.43-1.23.15-1.58.28-3.16.47-4.74.14-1.17.26-2.34 1.06-3.32.23-.29.32-.76.32-1.16.02-4.07.2-8.15-.27-12.21-.09-.74-.2-1.39-.92-1.98-.57-.47-.45-1.51-.65-2.3-1.24-4.8-3.94-7.02-9.28-6.08-1.96.34-3.81 1.03-5.1 2.6-1.56 1.9-2.95 3.92-4.3 5.99-.93 1.42-1.83 2.77-1.65 4.77zm-44.85 1.09c0-.09-.01-.19-.02-.28 1.77-.39 3.55-.77 5.32-1.16.23-.05.67-.12.67-.17-.04-1.35 1.11-.88 1.73-1.11.99-.37 2.03-.58 3.04-.87.09-.02.15-.13.19-.16-.14-.34-.6 0-.67-.43 1.62-.63 3.29-.92 4.87-1.9 1.85-1.14 4.16-1.56 6.05-2.89.95-.67 2.19-1 3.35-1.38 1.49-.5 3.03-1.13 4.24-2.1 1.51-1.21 3.45-1.46 4.96-2.72 1.01-.84 2.54-1.05 3.52-2.21.82-.97.87-1.32-.28-1.87-1.69-.8-3.07-2.31-5.13-2.3-.14 0-.36-.12-.4-.24-.47-1.26-1.61-1.18-2.63-1.36-.45-.08-.94-.13-1.31-.46.23-.46.96-.3.9-.99-.32-.03-.64-.08-.95-.08-2.29.05-4.53-.36-6.8-.56-.33-.03-.99.03-.86-.4.42-1.35-.69-.88-1.1-.92-3.41-.35-6.83-.1-10.25-.01-.48.01-.99.06-1.58.55 1.44.19 2.69.12 3.83.6-3.34.32-6.69.29-9.96.96-.01.11-.02.21-.04.32.73.21 1.47.41 2.31.65-.7.31-1.32.17-1.91.26-1.37.22-3-.19-3.74 1.58-.08.18-.5.23-.76.33-.49.2-1.04.32-1.45.61-2.36 1.69-4.52 3.63-6.62 5.63-.58.55-1.32 1.01-1.7 1.7-.78 1.42-2.05 2.43-2.85 3.87-1.67 3.01-3.85 5.73-5.02 9.02-.12.34-.24.75-.5.96-.86.73-1.03 1.7-1.14 2.74-.08.73-.17 1.42-1.03 1.77-.58.24-.94 2.3-.6 2.94.43.81 1.15.39 1.75.34.6-.05 1.22-.17 1.79-.37.56-.19 1.36-.07 1.61-.69.3-.73.82-.68 1.38-.7.9-.03 1.84-.02 2.59-.55 2.19-1.55 4.85-1.88 7.24-2.9.99-.42 2.42-.15 3-.75.77-.79 1.62-.79 2.43-1.16 1.15-.53 2.4-.59 3.58-1l-1.06-.12zm-95.8-1.71c1.35.52 2.53.64 3.68.78 1.73.21 2.93 1.52 4.64 1.9 2.36.54 4.6 1.67 6.92 2.46 1.67.57 3.34 1.24 4.95 1.97 1.38.63 3.12.56 4.18 1.55 1.2 1.12 2.57 1 3.9 1.29.66.14 1.39-.14 1.35-.87-.08-1.54-.22-3.18-1.23-4.39-.57-.68-.86-1.31-.96-2.12-.08-.65-.04-1.45-.57-1.82-1.6-1.11-1.93-3.04-2.8-4.53-1.52-2.6-3.3-4.98-5.04-7.4-1.77-2.47-4.18-4.34-6.54-6.2-1.02-.81-1.93-1.89-3.3-2.23-1.01-.25-1.17-.68-.18-1.37-1.99-.46-3.96-.27-5.86-.88.55-.62 1.39-.26 1.9-.77-.41-.38-.83-.3-1.23-.33-1.78-.16-3.57-.29-5.35-.49-.59-.07-1.3-.08-1.65-.65-.42-.66-1.01-.74-1.68-.77-3.38-.14-6.76-.11-10.14.02-.42.02-.85.03-1.4.42 2.15.39 4.12.49 6.1.6-1.25.13-2.49.21-3.74.29-2.44.17-4.87.33-7.31.53-.3.02-1.01-.02-.8.42.51 1.03-.29.86-.75.99-1.38.38-3.08-.01-3.88 1.71-.04.08-.21.13-.33.14-1.73.15-2.88 1.42-4.26 2.23-.9.53-.99.99-.16 1.75 2.01 1.85 4.51 2.81 6.88 4 3.22 1.63 6.41 3.31 9.66 4.87 3.33 1.6 6.65 3.29 10.25 4.27.12.03.3.06.33.13.5 1.2 1.65.97 2.59 1.16.88.18 1.73.44 2.56.8.05.02.07.12.1.18-.22.09-.44.18-.87.35zm99.06 7.49c-.35.38-.83.27-1.25.32-1.42.16-2.84.27-4.25.45-.26.03-.86-.11-.66.56.22.73-.26.71-.74.7-1.08-.01-2.25.09-2.97.84-.52.55-1.01.69-1.64.78-.44.06-.88.18-1.32.24-1.75.22-3.08 1.47-4.75 1.9-.82.21-1.75.27-2.36.92-.64.68-1.42.9-2.27 1.04-.52.09-1.04.21-1.54.37-.38.12-.67.41-.44.84.46.84.75 1.87 1.82 2.18 1.72.51 3.27 1.37 4.88 2.16 2.57 1.27 5.51 1.6 8.16 2.78 1.54.68 3.26.62 4.91.86 3.94.56 7.89.63 11.82.28 2.82-.25 5.77-.24 8.27-2.05 2.38-1.72 5.11-2.88 7.19-5.12 1.69-1.81 3.22-3.73 4.84-5.59 2.08-2.39 3.5-5.19 5.32-7.73 1.01-1.4 1.51-3.06 2.32-4.56 1.17-2.16 2.32-4.35 2.94-6.75.2-.76.34-1.46 1.15-1.89.53-.29.66-.87.08-1.28-.53-.38-3.1.03-3.6.57-.55.59-1.26.86-1.95 1.21-2.04 1.05-4.21 1.82-6.21 2.99-1.28.75-2.52 1.66-3.89 2.2-1.98.78-3.86 1.82-5.93 2.38-.23.06-.45.19-.66.3-2.46 1.25-4.79 2.83-7.63 3.15-.39.04-.9.07-1.03.51-.14.47.62.27.68.8-1.82.42-3.74.37-5.54.99.21.5.98.29 1.06.93-2.15.41-4.36.33-6.66.92.7.55 1.44.29 1.88.82zM42.04 80.4c-.89.09-1.02.69-.85 1.47.5 2.28 1.95 4.21 2.36 6.52.02.11.1.26.19.3 1.14.51 1.03 1.61 1.3 2.57.46 1.63 1.9 2.74 2.48 4.35.12.34.75.42.91.91.9 2.77 2.9 4.86 4.73 6.98 2.48 2.88 4.89 5.85 8.21 7.93 2.87 1.8 5.64 3.6 9.12 4.08 2.23.31 4.58-.12 6.68 1.02.27.14.68.09.93-.14.66-.62 1.51-.64 2.3-.64 5.38.04 10.43-1.51 15.46-3.14 1.18-.38 2.34-.93 3.37-1.61.9-.6 1.76-1.14 2.86-1.24.44-.04.95-.03 1.13-.55.29-.84.84-1.35 1.65-1.68.62-.25.47-.61-.02-.83-.36-.17-.78-.24-1.17-.32-1.44-.32-3.01-.24-4.09-1.57-.32-.4-.97-.4-1.5-.38-1.04.05-1.94-.34-2.68-1-.79-.71-1.69-.92-2.69-.92-.6 0-1.28.11-1.75-.35-1.16-1.12-2.63-1.38-4.13-1.62-.36-.06-.78-.03-1.03-.32-.94-1.1-2.25-1.17-3.52-1.45-.5-.11-1.78.33-1.32-1.12.07-.23-.35-.26-.58-.28-.49-.04-1.01.03-1.45-.12-1.16-.41-2.8.23-3.36-1.52-.03-.1-.36-.1-.56-.16-1.54-.42-3.43.04-4.4-1.79-.06-.11-.29-.16-.44-.17-2.44-.18-4.34-1.75-6.51-2.6-2.73-1.08-5.21-2.78-8.08-3.62-.23-.07-.45-.21-.64-.35-1.49-1.08-3.23-1.71-4.85-2.5-2.1-1.02-4.11-2.13-6.01-3.45-.57-.4-1.25-.58-2.02-.68zM179.84 241.45c-1.83.03-3.38.53-4.96.83-.06.49.49.46.55.84-.08.05-.16.15-.26.16-.81.11-1.63.15-2.42.34-.48.11-1.15-.21-1.3.87-.12.92-4.23 1.21-4.87.44-.37-.45-.27-.91.04-1.35.48-.68.74-1.44.92-2.25.5-2.3 1.82-4.24 2.85-6.29.57-1.12 1.3-2.23 2.25-3.17 1.1-1.09 2.35-1.75 3.81-2.24 1.51-.52 2.91-1.37 4.36-2.06.29-.14.6-.34.9-.33 2.08.07 4.12-.14 6.16.89 2.03 1.02 4.42.94 6.71.88.26 0 .55-.17.78-.33 2.73-2.03 5.88-3.51 8.19-6.11.46-.51 1.06-.88 1.69-1.18.84-.4.94-1.04.27-1.64-1.02-.93-2.09-1.73-3.64-1.73-3.92.02-7.77-.77-11.64-1.32-2.01-.28-3.96-.16-5.89.84-1.53.79-3.35.48-5.06.39-.83-.04-1.86-.22-2.36.31-1.15 1.24-2.68 1.17-4.07 1.5-1.25.3-1.92 1.31-2.92 1.91-3.82 2.31-7.25 5.06-9.42 9.11-.84 1.56-1.77 3.09-2.65 4.58-.79 1.34-1.27 2.94-2.36 4.13-.45.49-.58 1.15-.72 1.79-.26 1.15-.46 2.3-1.34 3.22-.56.59-.48 1.44-.52 2.21-.1 1.75-1.57 3.51-3.31 3.83-2.99.55-6.02.12-9.02.28-1.68.09-3.37.02-5.05.02l-.02.47 6.14.57c-1.63.11-2.95.21-4.27.27-4.76.21-9.52.54-14.28.14-1.44-.12-2.86-.52-4.33-.42-.2.01-.45-.02-.59-.13-1.98-1.57-4.27-.92-6.42-.78-2.01.13-3.94-.2-5.76-.77-1.32-.41-2.67-1.37-2.52-3.28.1-1.27-.09-2.54-1.18-3.45a.311.311 0 0 1-.11-.21c-.19-2.28-1.67-4.04-2.54-6.02-.71-1.63-1.52-3.29-2.65-4.75-.93-1.2-1.6-2.59-2.47-3.86-.82-1.21-1.95-2.02-2.88-3.06-1.96-2.19-4.61-3.51-7.01-5.13-.53-.36-1.11-.48-1.71-.61-1.08-.23-2.12-.54-3.07-1.16-1.07-.7-2.32-.71-3.54-.75-1.48-.05-2.87-.51-4.3-.76-2.79-.49-5.89-1.37-8.41-.25-2.86 1.27-5.61.66-8.39.99-1.05.12-2.1.29-3.14.45-.74.12-1.08.65-1.28 1.32-.2.66-.01 1.18.49 1.64 2.86 2.62 5.97 4.9 9.2 7.03 1.05.69 2.15.99 3.36.69 2.56-.64 5.23-.61 7.76-1.55 1.34-.5 2.89-.49 4.24.38.26.17.61.2.93.27 2.61.56 4.8 1.88 6.75 3.67 2.06 1.88 3.49 4.07 3.82 6.9.03.24.14.47.4.59.42-.2.09-.8.6-1.05.43 1.59.46 3.22.62 4.83.06.68.04 1.46 1.08 1.42.17 0 .33.09.32.28 0 .38-.34.45-.6.51-1.58.37-3.15.2-4.46-.68-1.03-.69-2-1.15-3.25-1.09-.54.02-1.13-.07-1.63-.38-.05-.62.66-.42.88-.98-1.15-.18-2.27-.35-3.39-.52-.24-.04-.49 0-.73-.07-.4-.1-1.04.14-1.14-.42-.08-.46.62-.41.97-.87-1.24-.19-2.41-.35-3.57-.54-.57-.09-1.26-.03-1.25-.96 0-.42-.48-.56-.84-.58-2.09-.14-3.56-1.6-5.22-2.56-1.6-.92-3.17-1.96-4.72-2.99-2.78-1.83-5.82-3.27-8.32-5.51-2.9-2.61-6.29-4.63-8.94-7.55-.72-.79-1.16-1.88-2.29-2.32-.47-.18-.29-.53.13-.65 2.78-.75 5.2-2.61 8.25-2.62.6 0 1.39-.16 1.73-.94.17-.39.61-.36.97-.38 5.81-.37 11.63-.6 17.46-.37 1.91.08 3.83.1 5.74.17.9.03 1.79.12 2.5.8.14.14.35.24.54.27 2.79.48 5.26 1.89 7.94 2.68.6.18 1.17.29 1.48.93.17.34.52.54.88.62 1.63.37 2.74 1.7 4.28 2.29.83.32 1.37 1.33 2.17 1.91 2.3 1.66 4.76 3.12 6.82 5.09 2.25 2.14 4.37 4.41 6.56 6.61.65.66 1.35 1.27 2.02 1.92 1.84 1.79 3.4 3.79 4.91 5.85.76 1.04 1.74 1.93 2.62 2.89.43.46.73.26.88-.23.15-.5.29-1.03.31-1.55.11-2.69.17-5.38-.09-8.06-.09-.96-.13-1.94-1.17-2.62-.55-.36-.48-1.34-.61-2.06-.19-1.09-.56-1.99-1.32-2.9-.88-1.06-1.55-2.37-2.2-3.61-.64-1.24-1.6-2.25-2.53-3.03-1.95-1.65-3.75-3.63-6.35-4.38-.08-.02-.2-.04-.22-.09-.68-1.69-2.19-1.58-3.62-1.74-.63-.07-.61-.19.05-1.27-1.85-.47-3.79-.33-5.59-.84.05-.62.67-.43.8-.97-2.68-.47-5.42-.43-8.19-1.03.51-.64 1.18-.24 1.64-.73-.42-.38-.94-.34-1.43-.39-1.94-.18-3.91.09-5.85-.3-1.24-.25-2.49-.45-3.61-1.08-.63-.35-1.32-.4-2.02-.4-1.59-.02-3.23 0-4.72-.53-2.79-1-5.82-1.47-8.17-3.54-1.99-1.75-2.11-4.67-.58-6.83 1.23-1.73 2.44-3.47 3.99-4.88 4.29-3.87 8.87-7.34 13.95-10.19 1.82-1.02 3.88-1.49 5.56-2.78.52-.4 1.33-.41 1.91-.75.43-.25 1.46.13 1.24-.99 0-.04.57-.2.89-.29 1.6-.44 3.19-.88 4.93-1.35-.35-.11-.57-.18-.93-.29 1.01-.69 2.13-.61 3.12-.92.46-.14.96-.12 1.12-.75.15-.57.72-.41 1.14-.48 1.83-.29 3.67-.56 5.47-.83.03-.62-.62-.47-.7-.91 1.44-.33 2.9-.42 4.34-.38 1.74.04 3.28-.47 4.73-1.34.37-.22.76-.28 1.17-.3 6.72-.33 13.44-.25 20.16-.22 1.79 0 3.45.61 5.1 1.12 1.71.54 3.42.71 5.16.8 1.1.06 2.11.21 3.13.79.92.52 2.1.56 3.15.89 1.01.32 2.04.26 2.98 1.18.82.8 2.32.86 3.59.94.36.02.73.06 1.08.17.14.05 1.08-.04.2.54-.2.14.27.29.46.35.82.23 1.74.26 2.45.66 2.21 1.24 4.66 1.93 6.92 3.09 1.39.72 2.64 1.63 3.97 2.38 3.05 1.71 6.04 3.51 8.86 5.53 2.34 1.67 4.38 3.76 6.15 6.07.1.13.15.33.27.4 1.47.78 1.7 2.25 2.04 3.66.02.1.14.17.21.25.49-.16.29-.77.79-1 .4 1.7.42 3.37.19 5.06-.03.19-.12.43-.27.52-1.99 1.35-3.71 3.23-6.39 3.3-1.08.03-2.08.42-3.09.96-1.2.64-2.68.58-4.06.67-1.5.1-3.02-.03-4.52.4-.16.47.58.2.47.72-3.23 1.09-6.75.42-10.4 1.1 1.08.65 2.08.37 3.17.96-3.27.45-6.37.19-9.33 1.18 0 .53.76.29.93.85l-5.71.72c0 .08-.02.16-.03.24.48.25.96.51 1.45.76-.04.07-.07.19-.1.18-3.43-.22-5.72 1.9-8.14 3.86-2.56 2.08-4.78 4.46-6.49 7.24-.99 1.6-2.51 3.01-2.54 5.13 0 .37-.2.9-.48 1.08-1.18.75-1.07 1.92-1.11 3.05-.11 3.3-.37 6.6.19 9.88.1.6.25 1.18.38 1.78.13-.03.26-.04.27-.06.08-2.03 1.52-3.29 2.77-4.57 1.83-1.86 3.17-4.12 5.07-5.93 3.08-2.95 5.97-6.11 9.13-8.96 1.34-1.21 2.77-2.4 4.42-3.33.92-.52 1.97-1.21 2.77-2 .71-.69 1.44-1.13 2.36-1.38.7-.19 1.42-.37 1.77-1.15.18-.4.66-.44 1.02-.61.8-.37 1.86-.33 2.24-1.43.07-.19.58-.23.89-.32 1.65-.44 3.15-1.24 4.71-1.9.67-.28 1.24-.73 2.06-.44.28.1.86-.07 1-.3.64-1.1 1.74-.93 2.68-.99 4.51-.31 9.03-.4 13.55-.26 2.48.08 4.97.16 7.45.2 1.11.02 2.15.16 3.2.61 1 .43 2.1.66 3.17.9 1.32.3 2.59.62 3.7 1.48.78.61 1.79.74 2.76.93.27.05.63.08.64.44 0 .16-.17.36-.32.47-1.26.97-2.32 2.15-3.47 3.22-2.92 2.72-5.97 5.29-9.15 7.69a55.076 55.076 0 0 1-7.28 4.64c-1.42.76-2.81 1.62-4.22 2.41-1.76.98-3.43 2.12-5.31 2.89-1.73.71-3.43 1.47-5.12 2.25-.37.17-1.08.43 0 .99zm-81.37-46.18c-.32.36-.71.21-1.04.24-2.15.2-4.3.38-6.45.57-.41.04-.96 0-1.14.34-.73 1.31-2.05 1.12-3.19 1.4-.64.16-1.67.03-1.68.86-.01.86 1.03.74 1.66.85 1.44.25 2.93.3 4.35.63 2.77.65 5.53 1.38 8.38 1.4 7.01.05 14.01.05 21.02-.04 13.56-.16 27.12.38 40.68-.33 3.28-.17 6.25-1.63 9.49-1.91.24-.02.5-.14.5-.44 0-.29-.24-.4-.47-.5-.87-.37-1.77-.59-2.71-.72-.61-.08-1.24-.14-1.71-.59-.73-.71-1.64-.85-2.58-.95-1.26-.13-2.52-.23-3.77-.36-.79-.09-1.64-.04-2.03-1.02-.15-.37-.61-.35-.98-.37-1.3-.09-2.6-.17-3.9-.28-1.17-.1-2.39-.05-3.49-.51-2.3-.97-4.75-1.22-7.18-1.26-7.29-.12-14.58-.43-21.87-.19-4.9.16-9.87-.47-14.63 1.32-2.65 1-5.49.49-8.24.74-.54.05-1.1.01-1.58.48.86.48 1.77.28 2.57.63zm6.65-10.81c-1.02.42-1.76.33-2.48.36-1.22.04-2.45.11-3.63.42-.3.08-1.71-.31-.76.96.16.22-.19.29-.38.32-.44.05-.89.13-1.34.12-1.67-.05-2.77 1.26-4.21 1.71-2.54.8-4.63 2.3-6.66 3.93-.33.26-.82.54-.57 1.08.25.53.79.47 1.29.46.88-.01 1.43-.77 2.21-.97 2.43-.61 4.95-.77 7.28-1.89 1.26-.6 2.8-.42 4.21-.58 1.44-.16 2.91-.13 4.29-.59-.02-.38-.51-.15-.48-.59.33-.06.68-.16 1.03-.19 2.07-.17 4.14-.36 6.21-.47 4.02-.2 8.05-.24 12.03-.97 2.81-.51 5.75-.69 8.51-.14 2.58.51 5.14.71 7.73.88 2.76.18 5.52.38 8.28.52 1.74.09 3.2 1.33 4.93 1.28 4.48-.13 8.48 2.19 12.88 2.42.64.03 1.23.42 1.77.78 1.1.74 2.33.62 3.55.54.34-.02.65-.17.73-.54.09-.39-.17-.63-.46-.77-.67-.33-1.14-.92-1.72-1.33-1.25-.88-2.51-1.9-3.92-2.37-2.19-.72-4.12-2.18-6.49-2.38-.18-.02-.42-.15-.51-.31-.56-.97-1.55-.93-2.45-1.09-1.21-.21-2.49-.14-3.64-.6.03-.46.67-.43.48-.85-.13-.3-.49-.26-.76-.28-1.94-.18-3.89-.35-5.84-.52-.45-.04-.93-.04-1.47-.46.9-.2 1.6-.35 2.31-.5-.33-.26-.64-.35-.96-.38-2.35-.18-4.72-.15-7.06-.56-.76-.13-1.66-.1-2.17-.7-.56-.67-1.21-.76-1.94-.78-5.37-.1-10.74-.15-16.11.07-.42.02-.82.08-1.22.42 1 .4 2 .11 2.85.84l-11.31.75-.02.36c.89.2 1.78.39 2.67.59-3.12.52-6.22.61-9.3 1.32.77.2 1.53.4 2.59.67z"/><path class="cls-2" d="M183.59 15.53c-1.24.81-2.3.94-3.35.93-3.43-.05-6.82.29-10.24.53-2.97.21-5.81 1.02-8.6 1.8-4.4 1.23-8.41 3.38-11.94 6.43-1.61 1.39-3.28 2.73-4.8 4.23a26.63 26.63 0 0 0-4.68 6.28c-.49.91-1.32 1.53-1.86 2.46-.99 1.7-1.47 3.69-2.83 5.19-.68.75-.68 1.81-.82 2.77-.08.59-.18 1.11-.87 1.31-.57.17-.6.72-.67 1.2-.16 1.21-.29 2.43-.45 3.64-.05.37.03.94-.69.43-.5-.36-.47.22-.5.48-.15 1.29-.29 2.59-.39 3.89-.1 1.27-.28 2.5-1.01 3.6-.37.56-.43 1.22-.5 1.87l-.87 7.4c-.04.32-.1.62-.41.93-.58-.88-.61-1.84-.63-2.73-.05-3-.63-5.9-1.5-8.75-.36-1.19-.22-2.43-.39-3.63-.17-1.27 0-2.65-1.48-3.49-.66-.38-.55-1.48-.56-2.29-.02-1.09-.17-2.06-1.07-2.85-.6-.53-.53-1.42-.78-2.15-.2-.59.15-1.74-1.19-1.46-.04 0-.18-.32-.23-.5-.12-.47-.29-.95-.31-1.43-.07-1.85-2.26-2.72-2.13-4.65-1.72-.52-1.82-2.36-2.74-3.52a81.36 81.36 0 0 0-4.61-5.34c-1.64-1.75-3.73-3.03-5.7-4.43-1.25-.89-2.85-1.39-3.96-2.24-1.8-1.38-4.12-1.2-5.78-2.62-.46-.39-1.13-.46-1.75-.45-1.82.02-3.51-.42-5.22-1.04-2.11-.76-4.41-.68-6.65-.77-1.67-.06-3.34-.02-5.01.04-1.34.05-2.54-.32-3.9-1 2.9-.41 5.24-1.78 7.7-2.81 2.51-1.05 5.07-1.85 7.76-2.4-.25-.53-.84-.4-.98-.91 2.31-.63 4.44-.37 6.49.94 3.85 2.46 8.1 3.87 12.6 4.56.28.04.66-.07.8.19.6 1.14 1.69.96 2.67 1.04 2.19.18 4.38.3 6.55.68.93.16 1.36.62 1.58 1.43.12.43.21.87.28 1.31.35 2.36 2.1 3.42 4.03 4.3 1.14.52 2.31 1.08 3.46 1.45 2.05.65 4.26.52 6.34-.23.68-.25 1.28-.79 1.98-.93 1.74-.33 2.62-1.85 3.97-2.68.36-.22.38-.69.49-1.09.86-3.18 1.76-3.86 5.08-3.88 2.56-.01 5.05-.51 7.52-1.19-.5-.03-.99-.07-1.49-.1 0-.06 0-.13-.01-.19.99-.15 1.97-.42 2.96-.44 3.36-.07 6.08-2.09 9.17-2.98.84-.24 1.65-.88 2.29-1.52 1.4-1.38 3.01-1.19 4.53-.59 2.94 1.15 5.89 2.26 8.86 3.34.34.13.73.19 1.02.4 1.53 1.09 3.2 1.88 5.36 2.24zM11.6 170.84c.21-.65 0-.91-.6-.95-.31-.02-.55-.17-.58-.52a.47.47 0 0 1 .28-.49c.33-.16.65-.1.92.11 2.25 1.67 4.74 2.8 7.48 3.41.2.04.51.05.5.26-.03 1.41 1.07 1.04 1.82 1.16.92.14 1.87.17 2.79.29.65.08 1.39-.06 1.64.9.1.39.69.37 1.09.4 6.7.5 13.4.96 20.13.41 2.88-.24 5.78-.03 8.67-.32.73-.07 1.68.08 2.14-.33 1.84-1.6 4.01-.95 6.05-1.1 2.15-.16 4.31-.16 6.47-.22.57-.02 1.11.18 1.28.74.21.68-.5.73-.87.97-2.25 1.4-4.13 3.29-6.27 4.83-1.35.97-2.59 2.08-4 2.98-1.04.66-1.88 1.63-2.82 2.45-3.99 3.47-7.95 6.98-11.85 10.56-3.65 3.36-7.03 7-10.21 10.81-1.12 1.34-2.62 1.31-3.41-.19-.52-.99-1.36-1.73-2.1-2.53-1.76-1.92-3.28-4.04-4.64-6.23-1.58-2.53-3.73-4.73-4.7-7.62-.28-.83-1.23-.95-1.49-1.84-.27-.92 0-2.25-1.42-2.61-.15-.04-.17-.51-.27-.77-.73-1.93-1.71-3.77-2.58-5.62-1.27-2.71-2.55-5.39-3.4-8.27-.07-.23-.04-.48-.05-.65zM222.71 207.43c-2.05.09-2.68-1.79-3.83-2.82-2.71-2.44-5.15-5.19-7.68-7.83-3-3.13-6.27-6.03-9.79-8.63-1.63-1.2-3.13-2.58-4.61-3.96-1.88-1.74-4.05-3.09-5.98-4.77-1.17-1.02-2.62-1.7-3.56-3.03-.32-.45-1.02-.63-1.53-.96-.29-.18-.78-.26-.68-.74.09-.42.44-.72.85-.8.47-.1.97-.11 1.45-.09 3.86.18 7.72.38 11.58.57.62.03 1.32-.16 1.49.8.06.34.54.29.86.31 9.68.48 19.36 1.02 29.03-.26.3-.04.66.01.88-.42-.47-.06-.91-.11-1.59-.2 2.46-.46 4.68-.85 6.9-1.3 1.7-.34 3-1.51 4.49-2.29.88-.46 1.73-.89 2.75-.89.73 0 1.08.35.96 1.07-.21 1.35-.37 2.67-1.16 3.92-.82 1.28-1.24 2.82-1.85 4.24-1.22 2.84-2.92 5.44-4.17 8.23-1.2 2.66-3.19 4.78-4.44 7.4-.54 1.12-1.2 2.57-2.51 3.3-.3.17-.37.52-.44.84-.13.66-.47 1.21-.89 1.72-1.71 2.08-3.52 4.09-5.08 6.27-.6.84-1.06 1.42-2.13 1.24-.29-.05-.78.12-.77-.34.02-.5.47-.45.85-.36.19.04.4.11.62-.22z"/><path class="cls-2" d="M46.53 34.08c1.99-.87 2.43-2.99 4.12-4.05 1.74-1.09 3.23-2.59 4.89-3.81.95-.7 2.13-1.27 3.29-1.75.86-.36 1.71-.76 2.4-1.41 1.14-1.08 2.43-1.26 3.84-.69 2.79 1.14 5.71 1.85 8.6 2.66 1.74.49 3.41 1.31 5.02 2.15.98.51 1.99 1.02 3.01 1.29 2.16.57 4.02 1.77 5.83 2.89 3.52 2.17 7.13 4.22 10.4 6.84 2.42 1.93 4.7 4.03 6.82 6.21 2.98 3.06 5.76 6.33 8.12 9.98 1.71 2.65 3.03 5.53 4.92 8.05.58.77.37 1.82.67 2.71.26.79.61 1 1.32.27.05 1.73.8 3.07 1.47 4.52 1.12 2.44 2.55 4.86 2.53 7.7 0 .49.15 1.15-.63 1.24-.68.08-.9-.43-1.06-.97-.49-1.66-1.68-2.94-2.53-4.38-2.21-3.77-5.06-7.13-7.85-10.49-2.08-2.5-4.54-4.64-7.12-6.64-1.72-1.33-3.31-2.83-4.9-4.32-.78-.73-1.74-1.21-2.62-1.75-1.62-1-3.3-1.94-4.89-2.96-1.86-1.19-4.13-1.45-5.83-2.92-.38-.33-1.07-.33-1.63-.44-.83-.17-1.68-.21-2.15-1.14-.24-.47-.86-.4-1.33-.5-.92-.19-1.84-.32-2.76-.5-.32-.06-.66-.15-.75-.53-.11-.5.47-.34.67-.69-2.37-.36-4.76-.26-7.41-1.02 1-.29 1.66-.49 2.32-.68-2.45-.21-4.86-.38-7.24-.89-.32-.07-1.22.2-.56-.78.27-.4-.39-.38-.63-.4-1.99-.15-3.98-.19-5.93-.68-.79-.2-1.59-.33-2.34-.68-2.12-1-4.42-.48-6.63-.76-1.1-.14-2.25-.04-3.44-.67zM209.64 34.3c-4.02.96-7.97-.22-11.7 1.07.21.49.71.02.9.64-2.65.72-5.43.4-8.06.92 0 .59.59.42.63.93-2.44.67-5.02.5-7.49 1.02 0 .58.57.47.78.88-2.02.57-4.16.38-6.13.98-.08.52.56.48.59 1.01-.71.08-1.42.15-2.13.24-1.27.15-2.62.02-3.6 1.15-.2.23-.69.2-1.04.31-1.14.38-2.4.51-3.19 1.62-.17.24-.53.4-.84.47-2.11.44-3.97 1.52-5.71 2.63-3.45 2.22-7.02 4.22-9.98 7.21-2.42 2.45-5.08 4.68-7.38 7.27-3.35 3.78-6.5 7.7-9.03 12.1-.68 1.18-1.76 2.13-2.01 3.57-.06.36-.39.64-.83.57-.38-.06-.53-.39-.55-.72-.1-1.61-.46-3.28.97-4.56.12-.1.22-.27.24-.42.31-2.36 1.72-4.28 2.62-6.39.73-1.71 1.53-3.45 2.56-5.05.92-1.43 1.89-2.85 2.55-4.4.63-1.49 1.56-2.76 2.44-4.05 3.6-5.28 8.25-9.62 12.91-13.92 1.8-1.65 3.77-3.18 5.87-4.51 2.18-1.38 4.32-2.87 6.71-3.81 2.08-.81 4.12-1.77 6.05-2.81 1.61-.87 3.33-1.34 4.92-2.15.59-.3 1.19-.5 1.85-.56.64-.06 1.29-.16 1.6-.91.19-.45.63-.55 1.12-.59 1.58-.13 3.16-.31 4.73-.5.49-.06 1.12-.04 1.12-.83 0-.22.16-.34.35-.45.93-.51 3.25-.18 4.14.44 2.33 1.63 4.76 3.12 7.07 4.79 1.74 1.26 3.38 2.66 4.99 4.09.78.69.72 1.97 1.92 2.71zM110.25 4.8l-1.12-.25V4.3c1.45-.13 2.9-.3 4.36-.39 4.92-.31 9.84-.27 14.77-.36 3.83-.07 7.65.04 11.47.12 2.15.05 4.31.22 6.46.37.73.05 1.41.25 2.06.68.91.61 2.01.58 3.06.68 1.42.13 2.84.23 4.26.36.27.03.61.05.72.37.13.35-.2.51-.41.67-.41.33-.84.63-1.28.93-.29.19-.68.2-.28.77.34.49-.34.39-.54.4-1.38.11-2.76.16-4.15.23-2.09.1-4.19.19-6.6.29 1.2.76 2.31.45 3.58 1.04-.71.09-1.1.16-1.49.19-7.08.55-14.16.34-21.25.35-3.71 0-7.41.09-11.11-.31-.75-.08-1.69.12-1.97-1.01-.11-.42-.62-.3-.97-.32-1.83-.11-3.66-.27-5.49-.29-1.83-.02-2.97-1.24-4.18-2.28-.7-.6-.03-.92.54-.97 1.82-.18 3.65-.3 5.48-.44 1.33-.1 2.67-.2 4.01-.29l.06-.26z"/><path class="cls-2" d="M67.44 44.71c-1.28.39-2.28 1.08-2.95 2.21-.19.32-.59.4-.94.52-.96.32-1.89.65-2.65 1.42-.62.62-1.57.58-2.42.72-.6.1-1.22.11-1.4.92-.13.58-.71.46-1.12.5-1.81.2-3.65.23-5.61.7.82.53 1.67.39 2.7.88-1.71.16-3.12.33-4.54.42-5.73.38-11.46.43-17.2.25-.72-.02-1.46-.17-2.16-.37-.58-.17-.8-.57-.24-1.07 1.72-1.51 3.06-3.35 4.53-5.08 1.02-1.21 2.12-2.34 3.04-3.65.99-1.41 3.55-2 5.12-.91 1.54 1.06 3.21 1.06 4.85 1.32 5.28.85 10.61.83 15.94.73 1.68-.03 3.37-.13 5.05.47zM203.99 52.37c.44-.21.78-.36 1.27-.59-1.18-.47-2.25-.3-3.27-.47-2.52-.4-4.56-1.95-6.88-2.83-.49-.19-.9-.64-1.39-.72-1.54-.25-2.24-1.5-3.19-2.47-.48-.49-.15-.69.35-.79 1.21-.24 2.42-.23 3.65-.2 5.58.15 11.13-.17 16.67-.83.36-.04.82-.06 1.04-.28.87-.87 2-.79 3.07-.94.48-.07 1.06.05 1.44-.18 2.08-1.26 2.8.67 3.75 1.67 1.84 1.93 3.51 4.03 5.21 6.08.61.73.95 1.67 1.89 2.15.45.23.12.64-.27.8-.64.27-1.32.43-2.02.45-6.67.18-13.34.08-20-.46-.4-.03-.82-.01-1.32-.4z"/></g></svg>